# Test file for the Wavefront .obj file format
o Minimal Object: Triangle. All sets of vertex attributes are unique.
# {v1, v2, v3, vn1, vn2, vn3, vt1, vt2 }
# {-1.000000 1.000000 -1.000000; 0.875000 0.500000; 0.0000 1.0000 0.0000} vertex attribute set 1
# { 1.000000 1.000000  1.000000; 0.625000 0.750000; 0.0000 1.0000 0.0000} vertex attribute set 2
# { 1.000000 1.000000 -1.000000; 0.625000 0.500000; 0.0000 1.0000 0.0000} vertex attribute set 3
v 1.000000 1.000000 -1.000000
v 1.000000 1.000000 1.000000
v -1.000000 1.000000 -1.000000
vt 0.875000 0.500000
vt 0.625000 0.750000
vt 0.625000 0.500000
vn 0.0000 1.0000 0.0000
s off
f 3/1/1 2/2/1 1/3/1
